HIERARCHY
ROOT hip
{
  OFFSET 0.0 0.0 0.0
  CHANNELS 6 Xposition Yposition Zposition Zrotation Yrotation Xrotation
  JOINT torso
  {
    OFFSET 0.0 0.0 0.0
    CHANNELS 3 Zrotation Xrotation Yrotation
    JOINT neck
    {
      OFFSET -31.42098999999993 328.8025209999999 74.3554680000002
      CHANNELS 3 Zrotation Xrotation Yrotation
      JOINT head
      {
        OFFSET 3.3519900000001144 303.81732099999994 206.53942900000015
        CHANNELS 3 Zrotation Xrotation Yrotation
        End Site
        {
          OFFSET 0.0 0.0 0.0
        }
      }
    }
    JOINT left_collar
    {
      OFFSET -31.42098999999993 328.8025209999999 74.3554680000002
      CHANNELS 3 Zrotation Xrotation Yrotation
      JOINT left_upper_arm
      {
        OFFSET -124.490479 -8.162841999999841 8.226441000000023
        CHANNELS 3 Zrotation Xrotation Yrotation
        JOINT left_forearm
        {
          OFFSET -253.595764 -1.5758060000000569 105.0729980000001
          CHANNELS 3 Zrotation Xrotation Yrotation
          JOINT left_hand
          {
            OFFSET -269.48803699999996 0.1478270000000066 -55.346191999999974
            CHANNELS 3 Zrotation Xrotation Yrotation
            End Site
            {
              OFFSET 0.0 0.0 0.0
            }
          }
        }
      }
    }
    JOINT right_collar
    {
      OFFSET -31.42098999999993 328.8025209999999 74.3554680000002
      CHANNELS 3 Zrotation Xrotation Yrotation
      JOINT right_upper_arm
      {
        OFFSET 162.02484099999998 0.46441600000002836 2.2303470000001653
        CHANNELS 3 Zrotation Xrotation Yrotation
        JOINT right_forearm
        {
          OFFSET 240.01246700000004 -25.835875999999985 121.34179699999959
          CHANNELS 3 Zrotation Xrotation Yrotation
          JOINT right_hand
          {
            OFFSET 252.48539699999992 18.910399999999868 -67.53466800000001
            CHANNELS 3 Zrotation Xrotation Yrotation
            End Site
            {
              OFFSET 0.0 0.0 0.0
            }
          }
        }
      }
    }
  }
}
MOTION
Frames: 14
Frame Time: 0.01
-224.00870310907558 268.38061461427606 1432.7949279451063 2.1524985557000096 -1.8432643632794246 -1.3630901601524013 0.3766216439124792 2.3284567803859697 0.1457421315288762 -3.9147203366974717 -9.869822376157757 2.937621028090053 0.0 0.0 0.0 0.30321994267737185 0.10850455289524091 -1.2953516729258132 50.58969382692256 7.489723904326136 28.937840130854454 42.46860376437451 -4.987197815428452 -10.433484624742377 0.0 0.0 0.0 0.24227669776630448 -0.026753971678382053 4.696338741466784 -48.479491440177576 8.483558651208117 -29.55465703919925 -55.78757102924072 -10.643433788721188 10.665250903407308 0.0 100.0 0.0
-223.937646875029 268.3302124561394 1432.6401099480452 2.1554930288635563 -1.893024385261525 -1.308522923786183 0.36598812257438806 2.3396874720610845 0.14905853853035067 -3.9125625791686796 -9.851180220413605 2.9355650796652184 0.0 0.0 0.0 0.29622442954470396 0.10936615812287158 -1.315909597532513 50.60096723913336 7.4954261291174635 28.93013112520592 42.45561957665524 -5.001702458871378 -10.392219606458612 0.0 0.0 0.0 0.24028423806689356 -0.026479215238638044 4.663076791924997 -48.493180430120674 8.496091819383143 -29.53965016914234 -55.76907088215205 -10.634898339427515 10.676024486644097 0.0 100.0 0.0
-223.8672071329529 268.2764173320136 1432.4864988841373 2.1610191501566063 -1.9463367710932535 -1.2485730657882483 0.3539549134551529 2.3527709330777165 0.15284632124552497 -3.90965309390262 -9.830917210847314 2.9329220058944347 0.0 0.0 0.0 0.2881912227378884 0.11046894768485274 -1.3412239802931416 50.6122923822843 7.501760920942233 28.921145835133707 42.44241728382254 -5.015921855709036 -10.351586051726382 0.0 0.0 0.0 0.2372048377242797 -0.026119875992437123 4.624398509926111 -48.50765248850184 8.50911772754285 -29.524179483910014 -55.750281149420836 -10.625708484211629 10.6881352329178 0.0 100.0 0.0
-223.79680145671045 268.2186694764248 1432.3322100325786 2.1694724466838657 -2.003462005826575 -1.1825551537826393 0.34013179815791933 2.3677848372042374 0.15719271126525083 -3.906024190573836 -9.809011256271 2.929714854824118 0.0 0.0 0.0 0.2791139703325029 0.11183354216723806 -1.3716292204044127 50.623527073700686 7.508847220000442 28.910590571804427 42.42902266202301 -5.029729303014678 -10.311915785106338 0.0 0.0 0.0 0.232868100081421 -0.025665118042019416 4.579649340875526 -48.52309003945618 8.522723894936481 -29.508182768304977 -55.7312496439108 -10.615870035880773 10.701593499256123 0.0 100.0 0.0
-223.7257369986896 268.1563856024133 1432.1750331220428 2.1812488511584993 -2.064665513890881 -1.1097631427703551 0.32411317123078764 2.3848233867082542 0.16218935474432922 -3.901709949515444 -9.785465190217217 2.925968632159692 0.0 0.0 0.0 0.26899458511519536 0.1134817300011311 -1.407472888874443 50.634526135145975 7.516798012657031 28.898182968598256 42.41544376656464 -5.043006809167787 -10.273513001714752 0.0 0.0 0.0 0.2270879800035637 -0.02510420059586881 4.528214275468564 -48.539650344927956 8.536972120914093 -29.491630361010905 -55.71201536215503 -10.6053800138967 10.716425318358203 0.0 100.0 0.0
-223.6532206296333 268.08898119229667 1432.012469489926 2.1967302075808877 -2.1302027190927704 -1.0294979606507029 0.30549038468613265 2.4039946736833833 0.16792940199633608 -3.896745425308145 -9.760312551281691 2.921709872554487 0.0 0.0 0.0 0.2578454279888834 0.11543575431915976 -1.449103043807694 50.645143804284444 7.525715036030258 28.88366363123994 42.401670598132256 -5.0556478972221015 -10.236646887330885 0.0 0.0 0.0 0.21966782312100017 -0.02442707990318973 4.469546212489672 -48.55745645040208 8.551892263459061 -29.4745314328185 -55.69260831400095 -10.594227427701796 10.73267062228445 0.0 100.0 0.0
-223.57836915110417 268.0158954167469 1431.8417728218585 2.2162671112196803 -2.200301402428164 -0.9410994707516775 0.2838658035651962 2.42541572491135 0.17450401616932898 -3.8911665739681234 -9.733623701078796 2.9169667425859966 0.0 0.0 0.0 0.24569208971088777 0.117717364016708 -1.4968511053614095 50.655235937373334 7.535683106942314 28.866808454610883 42.38767576840888 -5.067560368590918 -10.201544666403109 0.0 0.0 0.0 0.21040720538196622 -0.0236251096875671 4.403196363347502 -48.57658929893333 8.56747713742201 -29.456938846617103 -55.67305004632927 -10.582395241570095 10.750379141994221 0.0 100.0 0.0
-223.5002191020048 267.9366178860932 1431.6599920528702 2.240159572066644 -2.275141916995309 -0.8439817336938634 0.2588681834192708 2.4492052546328535 0.18199839371437498 -3.885010927994772 -9.705512007441756 2.9117696851381982 0.0 0.0 0.0 0.23257663418489116 0.12034666445715851 -1.5510108095249706 50.66466196732204 7.546764245013958 28.847441249182733 42.373416243368226 -5.078668921286227 -10.168385383743582 0.0 0.0 0.0 0.19911041982538444 -0.022691799189504345 4.3288455472188305 -48.597081399930765 8.58367882547652 -29.438952279634606 -55.653354829486766 -10.56986348338674 10.769604041916917 0.0 100.0 0.0
-223.4177358188079 267.8507162856078 1431.4640152743002 2.268636239270385 -2.3548360478032855 -0.7376700902035557 0.23016884213281621 2.4754742890533286 0.19048743511169997 -3.878318953479418 -9.676139716184247 2.906152546893642 0.0 0.0 0.0 0.21856108494645649 0.12334082465227728 -1.6118141590935962 50.673286626538335 7.558991823107151 28.825446208987355 42.358836217660034 -5.088917479673911 -10.137294810981716 0.0 0.0 0.0 0.18559632321924496 -0.02162357251689454 4.2463348722257095 -48.618912408847414 8.60040667884029 -29.42071930830983 -55.63353138149756 -10.556613359484924 10.790393530547828 0.0 100.0 0.0
-223.3298215620582 267.7578637860888 1431.250613833525 2.3018331332742012 -2.4394055154920276 -0.6218382315723746 0.19749798655269063 2.5043149652667 0.2000312442581346 -3.871135929225675 -9.645723036545508 2.9001540599278703 0.0 0.0 0.0 0.20373087042668617 0.1267127164273905 -1.6794056563260875 50.68098148687522 7.572365042072377 28.80077964054056 42.34387111059383 -5.098271082536217 -10.108341871593506 0.0 0.0 0.0 0.16970913429236345 -0.020420461465819172 4.155693999578626 -48.64200692508172 8.617527260957631 -29.402434182396608 -55.613584928864974 -10.542632143934126 10.812780864151495 0.0 100.0 0.0
-223.23532268863877 267.6578649604659 1431.0164861675705 2.3397729818183444 -2.528761280956175 -0.4963431913712719 0.16066047204905265 2.5357879379657176 0.21067066691748373 -3.8635141050087434 -9.614535902504102 2.8938194871146097 0.0 0.0 0.0 0.18819790755669286 0.13046957325255434 -1.753816368130801 50.68762639838441 7.586844078162488 28.773480280023094 42.328452580320224 -5.106717195791151 -10.081536894226364 0.0 0.0 0.0 0.1513296825546582 -0.019086659209661686 4.057165027768398 -48.66623473241536 8.634866440933465 -29.384334064047604 -55.593519367764834 -10.527918537703613 10.836773309875753 0.0 100.0 0.0
-223.1330360432361 267.55067880411207 1430.7583012224934 2.3823463355529286 -2.6226849039857547 -0.36125612115188166 0.11955022421003557 2.5699089610144292 0.22242310215784672 -3.855514835690669 -9.582911863278783 2.887202197648132 0.0 0.0 0.0 0.172103002105399 0.13461176041946118 -1.8349395128450943 50.69311091571653 7.602346278304679 28.743677475911618 42.312514352631325 -5.114266352615654 -10.05683187465902 0.0 0.0 0.0 0.13038654720065904 -0.017630866069903692 3.951220055831379 -48.69141358349257 8.652213761761326 -29.366692597239474 -55.57333930454946 -10.51248814783232 10.8623407452668 0.0 100.0 0.0
-223.02171496373916 267.4364373835601 1430.47274155859 2.4292956471095346 -2.7208132535551597 -0.2168867865985563 0.07416254678506773 2.6066353571656857 0.23527883365485164 -3.8472103538230953 -9.55124360058897 2.8803649162334626 0.0 0.0 0.0 0.1556172694911048 0.13913174554131993 -1.9225092964292272 50.697335785252285 7.618743770914383 28.711596525466966 42.29599857456903 -5.120952059784694 -10.034122803365229 0.0 0.0 0.0 0.10686648888864084 -0.016066371035649788 3.838570674117814 -48.71731447616189 8.669329088178806 -29.349810810679745 -55.5530518085678 -10.496378715916663 10.8894046452866 0.0 100.0 0.0
-222.90007551483637 267.3154586479271 1430.1565464216576 2.4802034342754404 -2.8226278672447798 -0.063799886969313 0.02460359050468204 2.6458532360263316 0.2491981258282638 -3.8386848317438043 -9.519979653511662 2.8733803841290704 0.0 0.0 0.0 0.13894231734257068 0.14401335193207176 -2.0160847192628224 50.700214537906206 7.635862812770274 28.677560540147336 42.27886233405041 -5.126829934459654 -10.01325402640608 0.0 0.0 0.0 0.08082354803235257 -0.01441083262569999 3.720167942795973 -48.7436692036512 8.685951387267812 -29.334005538530683 -55.53266777444567 -10.479654717101894 10.9178282587778 0.0 100.0 0.0
